{"title":"Skylar Grey Ft. Big Sean &amp; Travis Barker - Back From The Dea","uid":9003896,"size":78205123,"categoryP":"video","categoryS":"music_videos","magnet":"?xt=urn:btih:9ae5ecd62ddf1bea109d39aece65eca8a3823fe5&amp;dn=Skylar+Grey+Ft.+Big+Sean+%26amp%3B+Travis+Barker+-+Back+From+The+Dea&amp;tr=udp%3A%2F%2Ftracker.openbittorrent.com%3A80&amp;tr=udp%3A%2F%2Fopen.demonii.com%3A1337&amp;tr=udp%3A%2F%2Ftracker.coppersurfer.tk%3A6969&amp;tr=udp%3A%2F%2Fexodus.desync.com%3A6969","seeders":1,"leechers":0,"uploader":"Sbyky","files":1,"time":1380997411,"description":"[IMG]http://cdn.piczend.com/images/NgUWat0w/1380969844_backfromthedead.jpg[/IMG]\n\nGeneral\nComplete name                            : Skylar Grey Ft. Big Sean &amp; Travis Barker - Back From The Dead [Music Video] 1080p [Sbyky].mp4\nFormat                                   : MPEG-4\nFormat profile                           : Base Media / Version 2\nCodec ID                                 : mp42\nFile size                                : 74.6 MiB\nDuration                                 : 4mn 35s\nOverall bit rate mode                    : Variable\nOverall bit rate                         : 2 267 Kbps\nEncoded date                             : UTC 2013-09-26 18:14:04\nTagged date                              : UTC 2013-09-26 18:14:04\n\nVideo\nID                                       : 1\nFormat                                   : AVC\nFormat/Info                              : Advanced Video Codec\nFormat profile                           : &lt;a class=&quot;__cf_email__&quot; href=&quot;/cdn-cgi/l/email-protection&quot; data-cfemail=&quot;460e2f212e060a726876&quot;&gt;[email&amp;#160;protected]&lt;/a&gt;&lt;script cf-hash='f9e31' type=&quot;text/javascript&quot;&gt;\n/* &lt;![CDATA[ */!function(){try{var t=&quot;currentScript&quot;in document?document.currentScript:function(){for(var t=document.getElementsByTagName(&quot;script&quot;),e=t.length;e--;)if(t[e].getAttribute(&quot;cf-hash&quot;))return t[e]}();if(t&amp;&amp;t.previousSibling){var e,r,n,i,c=t.previousSibling,a=c.getAttribute(&quot;data-cfemail&quot;);if(a){for(e=&quot;&quot;,r=parseInt(a.substr(0,2),16),n=2;a.length-n;n+=2)i=parseInt(a.substr(n,2),16)^r,e+=String.fromCharCode(i);e=document.createTextNode(e),c.parentNode.replaceChild(e,c)}}}catch(u){}}();/* ]]&gt; */&lt;/script&gt;\nFormat settings, CABAC                   : Yes\nFormat settings, ReFrames                : 1 frame\nFormat settings, GOP                     : M=1, N=48\nCodec ID                                 : avc1\nCodec ID/Info                            : Advanced Video Coding\nDuration                                 : 4mn 35s\nBit rate                                 : 2 073 Kbps\nMaximum bit rate                         : 7 946 Kbps\nWidth                                    : 1 920 pixels\nHeight                                   : 1 080 pixels\nDisplay aspect ratio                     : 16:9\nFrame rate mode                          : Constant\nFrame rate                               : 23.976 fps\nColor space                              : YUV\nChroma subsampling                       : 4:2:0\nBit depth                                : 8 bits\nScan type                                : Progressive\nBits/(Pixel*Frame)                       : 0.042\nStream size                              : 68.2 MiB (91%)\nTagged date                              : UTC 2013-09-26 18:14:18\n\nAudio\nID                                       : 2\nFormat                                   : AAC\nFormat/Info                              : Advanced Audio Codec\nFormat profile                           : LC\nCodec ID                                 : 40\nDuration                                 : 4mn 35s\nBit rate mode                            : Variable\nBit rate                                 : 192 Kbps\nMaximum bit rate                         : 203 Kbps\nChannel(s)                               : 2 channels\nChannel positions                        : Front: L R\nSampling rate                            : 44.1 KHz\nCompression mode                         : Lossy\nStream size                              : 6.32 MiB (8%)\nTitle                                    : IsoMedia File Produced by Google, 5-11-2011\nEncoded date                             : UTC 2013-09-26 18:14:14\nTagged date                              : UTC 2013-09-26 18:14:18\n\nShared By Sbyky\n[IMG]http://cdn.piczend.com/images/X3Ag13N3/1379453786_saythanks.gif[/IMG]\n[IMG]http://cdn.piczend.com/images/gGqhX2S8/1379453780_keepseeding.gif[/IMG]","torrent":{"xt":"urn:btih:9ae5ecd62ddf1bea109d39aece65eca8a3823fe5","amp;dn":"Skylar+Grey+Ft.+Big+Sean+%26amp%3B+Travis+Barker+-+Back+From+The+Dea","amp;tr":["udp%3A%2F%2Ftracker.openbittorrent.com%3A80","udp%3A%2F%2Fopen.demonii.com%3A1337","udp%3A%2F%2Ftracker.coppersurfer.tk%3A6969","udp%3A%2F%2Fexodus.desync.com%3A6969"],"infoHash":"9ae5ecd62ddf1bea109d39aece65eca8a3823fe5","infoHashBuffer":{"type":"Buffer","data":[154,229,236,214,45,223,27,234,16,157,57,174,206,101,236,168,163,130,63,229]},"announce":[],"urlList":[]}}